<svg id="Layer_1" data-name="Layer 1" xmlns="http://www.w3.org/2000/svg" viewBox="0 0 316.17 195" fill="#fff"><path d="M304.65,251.29a12.76,12.76,0,0,1-1.29-.18,24.21,24.21,0,0,0-17.53,3c-9.41,5.37-16.94,5.53-26.86.57-11.38-5.69-26.45-4.4-29.46-3.23-.84.33-1.77.71-2.78,1.13-4.95,2-11.73,4.83-17.62,4.83-5.27,0-10-1.93-13.81-3.48-1.32-.54-2.57-1-3.73-1.44-10.9-3.65-19.64-3.07-28.33,1.9-9.41,5.37-16.94,5.53-26.86.57-11.69-5.85-19.43-4-19.75-3.94a2.2,2.2,0,0,0,1,4.27c.07,0,6.63-1.45,16.74,3.61,5.44,2.71,10.33,4.08,15.15,4.08,5.19,0,10.29-1.59,15.86-4.77,7.61-4.35,15-4.81,24.75-1.54,1,.35,2.21.83,3.47,1.34,4.16,1.69,9.34,3.8,15.47,3.8,6.76,0,14-3,19.3-5.16,1-.4,1.88-.78,2.7-1.1,1.61-.6,15.5-2.13,25.89,3.07,11.29,5.64,20.28,5.44,31-.69a20,20,0,0,1,14.62-2.47c.67.11,1.25.21,1.77.24a2.2,2.2,0,1,0,.25-4.4Z" transform="translate(-113.51 -75)"/><path d="M411.29,126.59l-22-.62V99.71C388,78,364.64,75,364.4,75H233.64l-.36,0c-24.1,4-25.73,26-25.74,26.25l-.1,56.62a29.79,29.79,0,0,0-15.62,5.23l-.95.65v35.66a2,2,0,0,0-.81-.21l-3.13-.22c-8.59-.6-16.7-1.18-25.14,3.65-9.41,5.37-16.94,5.53-26.86.57-11.69-5.85-19.43-4-19.75-3.94a2.2,2.2,0,0,0,1,4.27c.06,0,6.63-1.45,16.74,3.61,5.44,2.71,10.33,4.08,15.15,4.08,5.19,0,10.29-1.59,15.86-4.77,7.28-4.16,14.06-3.68,22.65-3.07l3.17.21a2.1,2.1,0,0,0,1.08-.22v21.76l-3.11-.22c-8.59-.6-16.71-1.18-25.15,3.65-9.41,5.37-16.94,5.53-26.86.57-11.69-5.85-19.43-4-19.75-3.94a2.19,2.19,0,0,0-1.61,2.65A2.23,2.23,0,0,0,117,229.5c.07,0,6.63-1.46,16.74,3.6,5.44,2.71,10.33,4.08,15.15,4.08,5.19,0,10.29-1.59,15.86-4.77,7.28-4.16,14.07-3.68,22.65-3.07l3.17.21a1.13,1.13,0,0,0,.26,0v15.55l.63.65a23.58,23.58,0,0,0,10.1,5.41,28.12,28.12,0,0,0,7.37,1c5.37,0,12.14-1.43,20-6l1.09-.64V229.88a2.1,2.1,0,0,0,.56,0c.16,0,16-2.24,26.37,2.94,5.43,2.71,10.33,4.08,15.15,4.08,5.19,0,10.29-1.59,15.86-4.77a20,20,0,0,1,14.62-2.47c.67.11,1.25.21,1.77.24a2.2,2.2,0,1,0,.25-4.39c-.28,0-.75-.1-1.29-.19a24.21,24.21,0,0,0-17.53,3c-9.41,5.37-16.94,5.53-26.86.57-11.32-5.66-27.52-3.56-28.9-3.37V204.29c3.07-.35,16.56-1.57,25.73,3,5.44,2.72,10.34,4.08,15.15,4.08,5.2,0,10.29-1.59,15.86-4.77a20,20,0,0,1,14.63-2.47,15.35,15.35,0,0,0,1.77.24,2.2,2.2,0,0,0,.25-4.39c-.28,0-.75-.1-1.3-.19a24.26,24.26,0,0,0-17.53,3c-9.4,5.37-16.93,5.53-26.86.57s-23.49-4-27.7-3.51V163.68L229,163A43.38,43.38,0,0,0,211.84,158l.1-56.45c.11-1.36,1.86-18.66,21.88-22.1H364c1.8.24,19.76,3.09,20.9,20.51v25.94l-18.57.1-.33,0c-.22,0-22.08,3.73-20.73,27.46v.17L356.6,207v46.42c.26,5.26,3.77,15.35,15.28,15.93.67,0,11.16.65,20.62.65a82.36,82.36,0,0,0,12.51-.68,15.82,15.82,0,0,0,13.23-14.61l.63-47.67c.83-3.62,9.34-40.52,10.68-54.15C430.49,143.4,426.39,128.56,411.29,126.59ZM209.6,162.25a39,39,0,0,1,15,3.5c-17.46,6.14-27.1.21-28-.37A26.14,26.14,0,0,1,209.6,162.25Zm-14.33,81V169.7a31,31,0,0,0,14.45,3.2A48.84,48.84,0,0,0,225.67,170v72.89C208.48,252.39,197.9,245.37,195.27,243.21Zm229.9-90.75c-1.35,13.75-10.55,53.41-10.65,53.81l0,.23-.63,48c-.58,8.61-8.69,10.33-9.62,10.5-7.67,1.39-31.84,0-32.1,0-10.17-.51-11.06-10.85-11.11-11.7V206.54L349.67,153c-1-18.83,15-22.33,16.88-22.67l21.76-.11v.11l22.53.62C423.67,132.72,425.83,145.78,425.17,152.46Z" transform="translate(-113.51 -75)"/><path d="M411.32,142H364.15a2.19,2.19,0,0,0-2.2,2.2v33.12a2.19,2.19,0,0,0,2.2,2.2h47.17a2.19,2.19,0,0,0,2.2-2.2V144.19A2.19,2.19,0,0,0,411.32,142Zm-2.2,33.12H366.35V146.39h42.77Z" transform="translate(-113.51 -75)"/><path d="M376.1,197.65h-8.49a2.2,2.2,0,0,0-2.2,2.2v8.49a2.19,2.19,0,0,0,2.2,2.2h8.49a2.19,2.19,0,0,0,2.2-2.2v-8.49A2.2,2.2,0,0,0,376.1,197.65Zm-2.2,8.49h-4.09v-4.09h4.09Z" transform="translate(-113.51 -75)"/><path d="M392.3,197.39h-8.49a2.2,2.2,0,0,0-2.21,2.2v8.49a2.2,2.2,0,0,0,2.21,2.2h8.49a2.2,2.2,0,0,0,2.2-2.2v-8.49A2.2,2.2,0,0,0,392.3,197.39Zm-2.2,8.49H386v-4.09h4.09Z" transform="translate(-113.51 -75)"/><path d="M407.39,197.39H398.9a2.2,2.2,0,0,0-2.2,2.2v8.49a2.2,2.2,0,0,0,2.2,2.2h8.49a2.19,2.19,0,0,0,2.2-2.2v-8.49A2.19,2.19,0,0,0,407.39,197.39Zm-2.2,8.49H401.1v-4.09h4.09Z" transform="translate(-113.51 -75)"/><path d="M375.94,215.63h-8.49a2.2,2.2,0,0,0-2.2,2.2v8.49a2.2,2.2,0,0,0,2.2,2.2h8.49a2.19,2.19,0,0,0,2.2-2.2v-8.49A2.19,2.19,0,0,0,375.94,215.63Zm-2.2,8.49h-4.09V220h4.09Z" transform="translate(-113.51 -75)"/><path d="M392.3,215.63h-8.49a2.2,2.2,0,0,0-2.21,2.2v8.49a2.2,2.2,0,0,0,2.21,2.2h8.49a2.2,2.2,0,0,0,2.2-2.2v-8.49A2.2,2.2,0,0,0,392.3,215.63Zm-2.2,8.49H386V220h4.09Z" transform="translate(-113.51 -75)"/><path d="M407.39,215.63H398.9a2.2,2.2,0,0,0-2.2,2.2v8.49a2.2,2.2,0,0,0,2.2,2.2h8.49a2.19,2.19,0,0,0,2.2-2.2v-8.49A2.19,2.19,0,0,0,407.39,215.63Zm-2.2,8.49H401.1V220h4.09Z" transform="translate(-113.51 -75)"/><path d="M375.94,233.87h-8.49a2.2,2.2,0,0,0-2.2,2.2v8.49a2.2,2.2,0,0,0,2.2,2.2h8.49a2.19,2.19,0,0,0,2.2-2.2v-8.49A2.19,2.19,0,0,0,375.94,233.87Zm-2.2,8.49h-4.09v-4.09h4.09Z" transform="translate(-113.51 -75)"/><path d="M392.3,233.87h-8.49a2.2,2.2,0,0,0-2.21,2.2v8.49a2.2,2.2,0,0,0,2.21,2.2h8.49a2.2,2.2,0,0,0,2.2-2.2v-8.49A2.2,2.2,0,0,0,392.3,233.87Zm-2.2,8.49H386v-4.09h4.09Z" transform="translate(-113.51 -75)"/><path d="M407.39,233.87H398.9a2.2,2.2,0,0,0-2.2,2.2v8.49a2.2,2.2,0,0,0,2.2,2.2h8.49a2.19,2.19,0,0,0,2.2-2.2v-8.49A2.19,2.19,0,0,0,407.39,233.87Zm-2.2,8.49H401.1v-4.09h4.09Z" transform="translate(-113.51 -75)"/></svg>